# xmcd
#
# Track frame offsets:
#	150
#	19979
#	37800
#	55191
#	71973
#	88261
#	105601
#	123524
#	141618
#	158934
#
# Disc length: 2352 seconds
#
# Revision: 2
# Processed by: cddbd v1.5.2PL0 Copyright (c) Steve Scherf et al.
# Submitted via: EasyCDDAExtractor 15.3.0.1
#
DISCID=92092e0a
DTITLE=Alvaro Torres - Mal Acostumbrado
DYEAR=2002
DGENRE=Latin
TTITLE0=Lo Que Se Dice Olvidar
TTITLE1=Y Estoy Sin Ti
TTITLE2=Mal Acostumbrado
TTITLE3=Te Lo Pido De Rodillas
TTITLE4=Que Manera De Querer
TTITLE5=Cambiando De Tema
TTITLE6=A Ti Mi Amor
TTITLE7=Enamorado
TTITLE8=No Debo Enamorarme De Ti
TTITLE9=Todo Se Paga
EXTD=
EXTT0=
EXTT1=
EXTT2=
EXTT3=
EXTT4=
EXTT5=
EXTT6=
EXTT7=
EXTT8=
EXTT9=
PLAYORDER=
